PathFileType	4	(X/Y/Z)	SUBJ62_1_walk_RCNL2025.trc
DataRate	CameraRate	NumFrames	NumMarkers	Units	OrigDataRate	OrigDataStartFrame	OrigNumFrames
100	100	11	25	mm	100	276	315
Frame#	Time	R_Shoulder			L_Shoulder			C7			J_Notch			R_Elbow			L_Elbow			R_Wrist			L_Wrist			R_Asis			L_Asis			Sacral			Thoracic			Sternum			R_Thigh_Lateral			R_Knee_Lateral			R_Shank_Lateral			R_Ankle_Lateral			R_Heel			R_Toe			L_Thigh_Lateral			L_Knee_Lateral			L_Shank_Lateral			L_Ankle_Lateral			L_Heel			L_Toe		
		X1	Y1	Z1	X2	Y2	Z2	X3	Y3	Z3	X4	Y4	Z4	X5	Y5	Z5	X6	Y6	Z6	X7	Y7	Z7	X8	Y8	Z8	X9	Y9	Z9	X10	Y10	Z10	X11	Y11	Z11	X12	Y12	Z12	X13	Y13	Z13	X14	Y14	Z14	X15	Y15	Z15	X16	Y16	Z16	X17	Y17	Z17	X18	Y18	Z18	X19	Y19	Z19	X20	Y20	Z20	X21	Y21	Z21	X22	Y22	Z22	X23	Y23	Z23	X24	Y24	Z24	X25	Y25	Z25
276	2.75000000	1863.662476	1252.201416	-0.584136	1827.244263	1259.711914	-340.376801	1776.576050	1324.367432	-166.392105	1906.490845	1236.900757	-175.668182	1914.847046	966.154907	83.352562	1713.078369	971.114624	-367.323364	2106.655518	858.588196	43.901011	1704.245605	751.524078	-354.153488	1895.093506	839.626648	-17.974733	1924.630615	844.432495	-279.469208	1739.718506	842.856079	-171.604202	1716.660400	1126.017456	-165.096130	1930.188232	1037.495605	-169.969971	1745.405151	470.689758	31.862856	1735.814819	411.118439	-44.076313	1656.002075	250.586792	-7.822964	1549.894165	92.581879	-80.785477	1495.649414	100.870689	-118.866226	1638.960571	42.396030	-99.102638	1962.790405	458.101105	-330.270081	1984.444702	399.768097	-280.443329	2044.798950	218.540726	-313.202698	2082.755615	51.748383	-248.701645	2023.742065	37.145271	-205.309479	2190.478271	54.474537	-236.142242
277	2.76000000	1875.937256	1252.368530	-2.020742	1839.126709	1259.672241	-341.922394	1788.519287	1324.498779	-167.919464	1918.509399	1237.228760	-177.355835	1923.895142	965.346130	81.851822	1726.241089	970.607483	-368.770325	2115.187256	856.583923	43.095975	1717.853333	750.976868	-355.540802	1908.306519	839.365601	-19.330421	1937.112061	844.979431	-281.020233	1752.458008	843.058716	-172.451584	1728.981934	1125.994629	-166.348618	1942.734619	1037.890137	-171.608154	1757.773804	470.811188	31.058523	1749.160278	410.812134	-44.104111	1665.493164	252.325043	-7.005918	1554.291870	97.418587	-79.307030	1500.708496	108.287079	-117.080956	1640.781616	42.620220	-98.870255	1977.222168	459.097321	-330.960632	1997.355469	400.259247	-280.919678	2052.692627	217.696121	-312.913422	2085.479980	50.338390	-248.166519	2025.757568	37.776024	-205.423798	2193.191162	49.060795	-234.562378
278	2.77000000	1888.445435	1252.826904	-3.510364	1851.067261	1259.895630	-343.446716	1800.575562	1324.898438	-169.416534	1930.609253	1237.815552	-179.100937	1932.614380	964.736816	80.266846	1739.858032	970.267456	-370.478363	2123.086792	854.226196	42.374954	1732.327759	750.569702	-357.244080	1921.589722	839.336487	-20.823893	1949.508911	845.940125	-282.701324	1765.145386	843.475769	-173.243301	1741.354126	1126.274902	-167.541183	1955.270996	1038.527954	-173.294647	1771.100464	470.789459	30.195599	1763.645752	410.402863	-44.081551	1676.026001	254.218521	-6.100850	1559.675537	102.677979	-77.748329	1506.953735	116.323807	-115.252586	1642.855713	42.767986	-98.697174	1991.895996	460.550171	-331.745117	2010.279663	401.117279	-281.524109	2060.946533	217.278458	-312.723724	2087.777588	49.247723	-247.808258	2027.374023	38.614613	-205.754990	2195.378418	44.281864	-233.105362
279	2.78000000	1901.138794	1253.552368	-5.051440	1863.052368	1260.385132	-344.932678	1812.705444	1325.525146	-170.874893	1942.767334	1238.628540	-180.876694	1941.031738	964.348755	78.611740	1753.901978	970.110901	-372.433075	2130.352173	851.525177	41.734154	1747.658630	750.328217	-359.255981	1934.872314	839.534729	-22.441399	1961.836182	847.297791	-284.466583	1777.764038	844.070190	-174.022217	1753.746582	1126.819214	-168.680878	1967.770142	1039.369141	-175.008682	1785.524658	470.560638	29.340506	1779.354858	409.826569	-43.968990	1687.719238	256.246277	-5.106829	1566.241333	108.356133	-76.105247	1514.543091	124.921448	-113.393967	1645.230591	42.868263	-98.571388	2006.681396	462.374573	-332.572845	2023.087524	402.235229	-282.230255	2069.571045	217.132294	-312.588226	2089.720215	48.432507	-247.606110	2028.718384	39.544415	-206.219131	2197.132568	40.279274	-231.847076
280	2.79000000	1913.946655	1254.503784	-6.639268	1875.077271	1261.127075	-346.372437	1824.865234	1326.322144	-172.298111	1954.959473	1239.621338	-182.650589	1949.182251	964.187256	76.908554	1768.334839	970.136353	-374.617218	2136.990723	848.495941	41.168283	1763.819153	750.262665	-361.557617	1948.093994	839.936218	-24.158823	1974.106079	848.995911	-286.262085	1790.301758	844.793335	-174.833435	1766.128784	1127.571289	-169.787521	1980.219849	1040.363525	-176.726822	1801.140015	470.083710	28.577751	1796.313599	409.019745	-43.728443	1700.654419	258.362183	-4.030439	1574.167114	114.431664	-74.370064	1523.596558	133.983871	-111.520309	1647.992432	42.995594	-98.455246	2021.393799	464.402557	-333.393463	2035.573853	403.443115	-283.006317	2078.354492	217.055466	-312.453308	2091.350098	47.833118	-247.520782	2029.865112	40.467094	-206.728302	2198.534668	37.107670	-230.831451
281	2.80000000	1926.784546	1255.627441	-8.259655	1887.147339	1262.089478	-347.763489	1837.015625	1327.231567	-173.693726	1967.160400	1240.741821	-184.386520	1957.108154	964.239990	75.183777	1783.111206	970.322571	-377.009979	2143.018433	845.158966	40.672044	1780.764099	750.363831	-364.115295	1961.209961	840.502136	-25.944902	1986.322021	850.940430	-288.036774	1802.746094	845.592651	-175.718201	1778.472412	1128.467285	-170.889465	1992.618774	1041.461060	-178.422165	1818.004395	469.340088	27.997307	1814.486572	407.936584	-43.336174	1714.867065	260.496735	-2.889468	1583.564819	120.850136	-72.551147	1534.180542	143.379471	-109.663971	1651.289062	43.280476	-98.285805	2035.746582	466.419983	-334.174042	2047.473877	404.561157	-283.820160	2086.927734	216.873505	-312.288361	2092.695557	47.391575	-247.507858	2030.852051	41.316868	-207.211090	2199.651855	34.744148	-230.056519
282	2.81000000	1939.565186	1256.864136	-9.886001	1899.274902	1263.222778	-349.102814	1849.126465	1328.206177	-175.066971	1979.345703	1241.938599	-186.048233	1964.849243	964.476440	73.460945	1798.182373	970.633362	-379.586945	2148.459351	841.539795	40.242092	1798.433960	750.605042	-366.884552	1974.186157	841.188049	-27.763998	1998.477173	853.011108	-289.750732	1815.082031	846.418823	-176.706467	1790.754272	1129.447998	-172.015228	2004.967529	1042.618774	-180.064163	1836.157593	468.335571	27.681417	1833.776855	406.564758	-42.792545	1730.340454	262.571594	-1.718903	1594.435791	127.514587	-70.693207	1546.291138	152.947784	-107.879181	1655.345947	43.907612	-97.976006	2049.362793	468.219086	-334.910645	2058.510010	405.447235	-284.646637	2094.884277	216.484985	-312.104828	2093.778809	47.059387	-247.525955	2031.694458	42.059795	-207.620117	2200.532715	33.098152	-229.482895
283	2.82000000	1952.209839	1258.156616	-11.481101	1911.473755	1264.467651	-350.383850	1861.179077	1329.214111	-176.418137	1991.492310	1243.166138	-187.602661	1972.432617	964.849915	71.752495	1813.502686	971.024658	-382.320618	2153.344971	837.668732	39.879621	1816.764465	750.950897	-369.819077	1986.994019	841.953491	-29.577984	2010.556641	855.078125	-291.377167	1827.290283	847.233643	-177.811203	1802.955811	1130.467163	-173.184998	2017.259644	1043.802734	-181.619095	1855.618408	467.103058	27.687723	1854.030273	404.937714	-42.127953	1747.005493	264.522064	-0.577417	1606.667969	134.302719	-68.880241	1559.848633	162.511902	-106.237198	1660.468384	45.096546	-97.417503	2061.852783	469.640900	-335.630310	2068.450684	406.021606	-285.473816	2101.890869	215.867188	-311.949951	2094.623291	46.799957	-247.543457	2032.399658	42.687481	-207.932861	2201.212402	32.034416	-229.057114
284	2.83000000	1964.656738	1259.455933	-13.001284	1923.754028	1265.764648	-351.596893	1873.164551	1330.236572	-177.741287	2003.580566	1244.388428	-189.022888	1979.870117	965.307129	70.056473	1829.036499	971.451782	-385.180664	2157.709351	833.579407	39.591243	1835.694580	751.368896	-372.879822	1999.609131	842.769592	-31.349133	2022.542480	857.019043	-292.900940	1839.348877	848.015625	-179.026627	1815.062622	1131.496094	-174.406219	2029.477905	1044.986572	-183.051865	1876.351440	465.706360	28.030132	1875.055420	403.144257	-41.401550	1764.747803	266.319305	0.456010	1620.087891	141.102097	-67.217972	1574.714722	171.890503	-104.821632	1667.025269	47.061378	-96.489105	2072.913086	470.593414	-336.380157	2077.160645	406.269897	-286.300476	2107.753906	215.054337	-311.882690	2095.260254	46.589977	-247.545166	2032.978027	43.210030	-208.148300	2201.721924	31.401966	-228.732132
285	2.84000000	1976.864868	1260.724731	-14.401336	1936.116455	1267.064331	-352.730377	1885.080078	1331.265503	-179.024445	2015.594116	1245.579834	-190.290146	1987.164185	965.799927	68.358986	1844.760254	971.875183	-388.133972	2161.583496	829.306274	39.386650	1855.171875	751.838196	-376.039688	2012.015137	843.623535	-33.044613	2034.417480	858.735474	-294.316223	1851.235840	848.760315	-180.330719	1827.063110	1132.525391	-175.674500	2041.596802	1046.150513	-184.330597	1898.217285	464.245209	28.665365	1896.650391	401.327942	-40.689453	1783.419067	267.991821	1.299754	1634.544067	147.834656	-65.804001	1590.729614	180.902405	-103.723022	1675.409912	49.951355	-95.076714	2082.396240	471.050446	-337.206818	2084.623047	406.230133	-287.125763	2112.439453	214.108948	-311.948700	2095.729248	46.418152	-247.531860	2033.446045	43.648144	-208.279465	2202.090088	31.059069	-228.475281
286	2.85000000	1988.814697	1261.939575	-15.641095	1948.549438	1268.333496	-353.772583	1896.926880	1332.300659	-180.251770	2027.521484	1246.726074	-191.394913	1994.315308	966.292603	66.639923	1860.660522	972.265381	-391.145447	2164.989624	824.883148	39.274158	1875.154724	752.356903	-379.287430	2024.202637	844.516296	-34.639999	2046.166870	860.167236	-295.624207	1862.933594	849.476257	-181.689377	1838.947876	1133.561035	-176.976685	2053.588135	1047.281860	-185.432098	1920.929810	462.852875	29.491243	1918.625610	399.673126	-40.065998	1802.846436	269.644104	1.895636	1649.981323	154.451431	-64.696503	1607.751831	189.362091	-103.025246	1685.977173	53.787624	-93.106750	2090.327881	471.042023	-338.134552	2090.934082	405.969849	-287.939392	2116.052979	213.100479	-312.163544	2096.072754	46.279934	-247.511856	2033.825073	44.025444	-208.345856	2202.345459	30.890118	-228.266739
